<?xml version="1.0" encoding="UTF-8" standalone="no"?> <svg id="Layer_1" data-name="Layer 1" xmlns="http://www.w3.org/2000/svg" viewBox="0 0 128 128"><path d="M47.81386,70.60793H80.1861C90.28681,66.53891,99.061,59.06434,99.061,49.68959,99.061,36.13842,79.07482,4.73411,64,4.73411c-15.08373,0-35.061,31.40431-35.061,44.95548C28.939,59.06434,37.71322,66.53891,47.81386,70.60793Zm36.011-25.39955c0,10.92522-8.89967,18.03237-19.8249,18.03237-10.93418,0-19.82484-7.10715-19.82484-18.03237C44.17514,32.97472,83.82488,32.97472,83.82488,45.20838Z"/><path d="M19.878,73.18909a7.14887,7.14887,0,0,1,5.50295-2.58116h7.89592c-.8425-.65431-1.65807-1.33542-2.42886-2.04346A29.162,29.162,0,0,1,23.687,58.82229c-2.48266,2.04347-5.38646,4.544-8.37093,7.37607C10.46559,70.8048,5.57137,82.52675,3.0599,89.17976A14.29786,14.29786,0,0,0,2.84465,98.64l5.972,18.42343a8.96245,8.96245,0,0,0,8.52573,6.1988h9.06025l-8.07508-44.1937A7.18368,7.18368,0,0,1,19.878,73.18909Z"/><path d="M124.94013,89.17976c-2.51148-6.653-7.40569-18.375-12.25621-22.9814-2.98454-2.8321-5.88834-5.3326-8.37093-7.37607a29.16122,29.16122,0,0,1-7.161,9.74218c-.77072.708-1.58636,1.38915-2.42879,2.04346H102.619a7.1793,7.1793,0,0,1,7.05342,8.46055l-8.07508,44.1937h9.06032a8.96232,8.96232,0,0,0,8.52566-6.1988l5.972-18.42343A14.29836,14.29836,0,0,0,124.94013,89.17976Z"/><path d="M100.9133,77.77783H27.08047a1.41529,1.41529,0,0,0-1.39225,1.66931l7.99665,43.81875h60.624l7.99658-43.81875A1.41521,1.41521,0,0,0,100.9133,77.77783ZM63.99688,105.22529c-4.99117,0-9.03729-2.10581-9.03729-4.7034s4.04612-4.7034,9.03729-4.7034,9.03723,2.10575,9.03723,4.7034S68.98805,105.22529,63.99688,105.22529Z"/></svg>