<?xml version="1.0" encoding="iso-8859-1"?>
<!-- Generator: Adobe Illustrator 21.1.0, SVG Export Plug-In . SVG Version: 6.00 Build 0)  -->
<svg version="1.1" id="Layer_1_1_" xmlns="http://www.w3.org/2000/svg" xmlns:xlink="http://www.w3.org/1999/xlink" x="0px" y="0px"
	 viewBox="0 0 16 16" style="enable-background:new 0 0 16 16;" xml:space="preserve">
<path d="M14,0H2C0.895,0,0,0.895,0,2v9c0,1.105,0.895,2,2,2h3v2H3v1h10v-1h-2v-2h3c1.105,0,2-0.895,2-2V2C16,0.895,15.105,0,14,0z
	 M10,15H6v-2h4V15z M15,10H1V2c0-0.552,0.449-1,1-1h12c0.551,0,1,0.448,1,1V10z"/>
</svg>
