<?xml version="1.0" encoding="UTF-8" standalone="no"?>
<svg
   version="1.1"
   width="595.27557"
   height="595.27557"
   id="svg22"
   viewBox="0 0 595.27557 595.27557"
   sodipodi:docname="evo.cdr"
   xmlns:inkscape="http://www.inkscape.org/namespaces/inkscape"
   xmlns:sodipodi="http://sodipodi.sourceforge.net/DTD/sodipodi-0.dtd"
   xmlns="http://www.w3.org/2000/svg"
   xmlns:svg="http://www.w3.org/2000/svg">
  <defs
     id="defs26" />
  <sodipodi:namedview
     id="namedview24"
     pagecolor="#ffffff"
     bordercolor="#666666"
     borderopacity="1.0"
     inkscape:pageshadow="2"
     inkscape:pageopacity="0.0"
     inkscape:pagecheckerboard="0" />
  <path
     d="M -0.2021,0.2021 V 595.4777 H 595.0735 V 0.2021 Z"
     style="fill:none;fill-rule:evenodd"
     id="path2" />
  <g
     id="Layer1000">
    <path
       d="m 222.2423,184.2358 109.1605,-0.0748 0.1113,-7.3161 c 5.3895,2.2836 5.3763,3.6162 10.6047,8.8732 3.5954,3.6133 6.3136,6.3255 9.9207,9.9417 4.3541,4.3662 17.2596,16.047 19.6878,20.1563 -1.6769,1.2035 -0.3882,1.4676 -6.2477,1.5748 -24.7404,0.4564 -99.1738,-1.6849 -111.1347,0.3771 l -0.0263,28.8799 110.0113,-0.0411 0.2167,32.9276 -110.2691,0.1863 0.0454,30.0775 110.1403,-0.002 0.0263,32.9701 -142.9926,0.0734 -0.1347,-127.1474 c 8.5894,-0.6222 23.0502,-1.789 30.6731,0.5269 z m -44.8601,80.0412 c 0.009,37.0413 -0.8391,83.8085 0.2021,119.6874 29.6246,-0.204 59.1511,-0.0249 88.6233,-0.0249 32.3164,0 53.1392,1.2709 78.1358,-10.4862 C 464.2609,317.0512 418.5703,146.38 297.2191,145.5728 230.9109,145.1311 177.2182,197.9552 177.3822,264.277 Z"
       style="fill:#3e57e8;fill-rule:evenodd"
       id="path4" />
    <path
       d="m 162.1511,446.7089 -13.9439,-34.4104 7.94,-0.1094 7.8379,24.2173 1.0558,-0.007 c 0.4167,-1.3104 0.8203,-2.8147 1.2484,-4.4151 2.1941,-8.1955 5.0531,-18.8699 13.6999,-19.2313 l 0.8114,-0.0342 -13.7184,34.3197 h -4.7973 z m 37.2935,-5.87 c 3.055,0 5.8198,-1.24 7.8201,-3.2445 2.0012,-2.0053 3.2395,-4.7774 3.2395,-7.8395 0,-3.0621 -1.2383,-5.8341 -3.2395,-7.8395 -2.0003,-2.0045 -4.7651,-3.2445 -7.8201,-3.2445 -3.0549,0 -5.8198,1.24 -7.8201,3.2445 -2.0011,2.0054 -3.2394,4.7774 -3.2394,7.8395 0,3.0621 1.2383,5.8342 3.2394,7.8395 2.0003,2.0045 4.7652,3.2445 7.8201,3.2445 z m 238.4242,-18.9235 c -2.0012,2.0054 -3.2394,4.7774 -3.2394,7.8395 0,3.0621 1.2382,5.8342 3.2394,7.8395 2.0003,2.0045 4.7652,3.2445 7.8201,3.2445 2.1873,0 4.2248,-0.6345 5.938,-1.7293 1.5359,-0.9811 2.8139,-2.3334 3.7093,-3.9305 h -2.5973 l -0.2887,-0.0886 -8.6362,-5.678 0.2888,-0.9668 h 20.7089 v 6.7334 h -2.4508 c -1.134,3.502 -3.3382,6.5232 -6.2242,8.675 -2.9169,2.1755 -6.5333,3.4632 -10.4478,3.4632 -4.8386,0 -9.2209,-1.9665 -12.3932,-5.146 -3.171,-3.1782 -5.1333,-7.5689 -5.1333,-12.4164 0,-4.8475 1.9623,-9.2382 5.1333,-12.4164 3.1723,-3.1795 7.5546,-5.146 12.3932,-5.146 3.6059,0 6.9597,1.0939 9.7478,2.968 2.8708,1.9298 5.1418,4.6896 6.4708,7.9366 l 0.2968,0.7257 h -7.1653 l -0.1571,-0.2351 c -1.0107,-1.5102 -2.3836,-2.759 -3.9917,-3.619 -1.5477,-0.8279 -3.3188,-1.2978 -5.2013,-1.2978 -3.0549,0 -5.8198,1.24 -7.8201,3.2445 z m -42.3598,24.5601 -0.0945,-34.4113 h 6.3868 l 15.3408,23.809 c 0.179,0.1224 0.6688,0.3951 0.7515,-0.2145 v -18.4646 l 6.6427,-5.7695 c -0.1609,11.7662 -0.3163,23.5333 -0.4877,35.2995 h -5.9945 l -15.9045,-22.9693 c -0.1085,-0.0776 -0.3694,-0.2309 -0.5666,-0.084 l 0.4336,13.2004 c 8e-4,0.0254 0.3922,8.9195 -5.8831,10.1219 l -0.6228,0.119 z m -20.3745,-5.74 h 3.7452 v -16.0882 l 6.3382,-5.756 h -10.5183 v -6.6405 h 17.2184 v 6.6405 h -6.0381 v 21.8442 h 5.6665 v 6.6405 h -16.9396 v -6.6405 z m -26.571,-0.0296 -5.6201,7.121 -0.9381,-0.3255 -0.0949,-35.2561 6.5742,0.1064 14.7338,22.5859 -0.4991,-15.9999 0.128,-0.3584 5.5732,-6.4227 0.9254,0.3441 v 34.4919 l -6.0971,0.1069 -14.947,-21.7627 0.3749,15.0314 z m -36.371,6.47 -0.0482,-33.7147 14.8339,0.0966 0.0823,0.006 c 0.019,0.003 6.7,0.9858 7.4038,6.1275 l 0.006,0.0701 v 7.8193 l -0.0287,0.171 c -0.005,0.0143 -1.7005,5.0109 -7.2801,5.0109 h -8.1182 l -0.0886,9.9719 c 0.0232,0.3369 0.0924,3.6709 -6.1318,4.9565 l -0.6299,0.13 z m 18.53,0.2558 -9.4751,-13.4976 0.6063,-0.8 7.4064,2.6074 0.2372,0.1693 9.2357,11.6349 -7.8518,0.1123 z m -6.7161,-28.399 h -2.1835 c -0.7498,0 -1.4304,0.3069 -1.9226,0.8001 -0.4936,0.4948 -0.8005,1.1783 -0.8005,1.9298 v 4.9349 c 0,0.6746 0.2753,1.2885 0.7186,1.7326 0.442,0.4429 1.0533,0.7181 1.7258,0.7181 h 2.4622 c 1.2986,0 2.4787,-0.5319 3.3331,-1.3881 0.8554,-0.857 1.3869,-2.0413 1.3869,-3.3433 v -0.6527 c 0,-1.302 -0.5315,-2.4862 -1.3869,-3.3432 -0.8544,-0.8562 -2.0345,-1.3882 -3.3331,-1.3882 z m -27.7982,-5.7987 13.9438,34.4101 -7.94,0.1093 -2.6221,-8.1017 h -5.0658 l -4.5212,-4.6385 c -2.1371,6.2297 -5.3634,11.9144 -11.6328,12.1766 l -0.811,0.0338 c 4.5722,-11.4399 9.1352,-22.884 13.718,-34.3193 h 4.7977 z m -4.1383,14.7241 c -0.5674,2.1198 -1.18,4.4055 -1.9251,6.6354 h 7.8078 l -3.5784,-11.0569 -1.0559,0.007 c -0.4167,1.3105 -0.8198,2.8147 -1.2484,4.4148 z m -146.1374,4.481 h -6.6629 l -5.2047,-6.5476 h 12.3953 v 6.5476 z m 0.4201,14.6194 h -19.5703 v -19.238 l 0.1093,-0.3196 6.177,-8.0988 0.944,0.326 -0.2719,20.8761 h 13.1396 v 6.4543 z m 0.8823,-27.8324 h -20.4526 v -7.1991 h 20.9804 v 7.1991 z m 126.9391,13.213 h -6.6629 l -4.7407,-5.9637 -0.1845,14.1288 h 13.1396 v 6.4543 h -20.098 v -19.238 l 0.1094,-0.3196 6.1773,-8.0988 0.944,0.326 -0.0802,6.1634 h 11.9237 v 6.5476 z m 1.3029,-13.213 h -20.4531 v -7.1991 h 20.9808 v 7.1991 z m -40.4549,21.6584 h 17.5265 v 6.5476 h -18.0542 v -6.5476 z m 0,-28.7638 h 7.0437 l -0.5729,20.9281 -0.1338,0.3381 -5.9452,6.6093 -0.9195,-0.3525 v -27.523 z m -35.5774,0.0718 c 4.8387,0 9.2209,1.9665 12.3932,5.146 3.171,3.1782 5.1334,7.5689 5.1334,12.4164 0,4.8475 -1.9624,9.2382 -5.1334,12.4164 -3.1723,3.1795 -7.5545,5.146 -12.3932,5.146 -4.8386,0 -9.2209,-1.9665 -12.3931,-5.146 -3.1711,-3.1782 -5.1334,-7.5689 -5.1334,-12.4164 0,-4.8475 1.9623,-9.2382 5.1334,-12.4164 3.1722,-3.1795 7.5545,-5.146 12.3931,-5.146 z"
       style="fill:#000000;fill-rule:evenodd"
       id="path6" />
  </g>
  <g
     id="Layer1001">
    <path
       d="m -643.0766,54.8135 v 460.8 h 259.2 v -460.8 z"
       style="fill:#ffffff;fill-rule:evenodd"
       id="path9" />
    <g
       id="Layer1002">
      <path
         d="m -541.0983,242.9807 40.9928,-0.0281 0.0418,-2.7474 c 2.0238,0.8575 2.0189,1.358 3.9823,3.3321 1.3502,1.3569 2.3709,2.3754 3.7255,3.7334 1.6351,1.6396 6.4814,6.0261 7.3933,7.5692 -0.6297,0.452 -0.1458,0.5512 -2.3462,0.5914 -9.2907,0.1714 -37.2425,-0.6327 -41.7341,0.1416 l -0.01,10.8452 41.3123,-0.0154 0.0814,12.3652 -41.4091,0.07 0.0171,11.2949 41.3606,-6e-4 0.01,12.3812 -53.6976,0.0275 -0.0506,-47.7473 c 3.2256,-0.2336 8.656,-0.6718 11.5186,0.1979 z m -16.8462,30.0576 c 0.003,13.91 -0.3151,31.4724 0.0759,44.9459 11.1249,-0.0766 22.2128,-0.009 33.2805,-0.009 12.1357,0 19.9552,0.4773 29.3421,-3.9378 45.0323,-21.1805 27.8743,-85.2722 -17.6964,-85.5753 -24.9006,-0.1659 -45.0637,19.671 -45.0021,44.5766 z"
         style="fill:#3e57e8;fill-rule:evenodd"
         id="path11" />
      <path
         d="m -563.6642,341.5465 -5.2363,-12.9221 2.9817,-0.041 2.9433,9.0942 0.3965,-0.002 c 0.1565,-0.4921 0.3081,-1.057 0.4688,-1.6581 0.824,-3.0776 1.8976,-7.0861 5.1447,-7.2218 l 0.3047,-0.0129 -5.1516,12.888 h -1.8015 z m 14.0048,-2.2044 c 1.1472,0 2.1855,-0.4656 2.9366,-1.2184 0.7515,-0.753 1.2165,-1.794 1.2165,-2.9439 0,-1.1499 -0.465,-2.1909 -1.2165,-2.944 -0.7511,-0.7527 -1.7894,-1.2184 -2.9366,-1.2184 -1.1472,0 -2.1855,0.4657 -2.9367,1.2184 -0.7515,0.7531 -1.2165,1.7941 -1.2165,2.944 0,1.1499 0.465,2.1909 1.2165,2.9439 0.7512,0.7528 1.7895,1.2184 2.9367,1.2184 z m 89.5347,-7.1063 c -0.7514,0.7531 -1.2164,1.7941 -1.2164,2.944 0,1.1499 0.465,2.1909 1.2164,2.9439 0.7512,0.7528 1.7895,1.2184 2.9367,1.2184 0.8214,0 1.5865,-0.2383 2.2299,-0.6494 0.5768,-0.3684 1.0567,-0.8762 1.3929,-1.476 h -0.9753 l -0.1085,-0.0333 -3.2431,-2.1322 0.1085,-0.363 h 7.7767 v 2.5285 h -0.9203 c -0.4258,1.3151 -1.2536,2.4497 -2.3374,3.2577 -1.0953,0.817 -2.4534,1.3006 -3.9234,1.3006 -1.817,0 -3.4627,-0.7385 -4.654,-1.9325 -1.1908,-1.1935 -1.9277,-2.8423 -1.9277,-4.6627 0,-1.8204 0.7369,-3.4692 1.9277,-4.6627 1.1913,-1.194 2.837,-1.9325 4.654,-1.9325 1.3541,0 2.6136,0.4108 3.6606,1.1146 1.078,0.7247 1.9308,1.7611 2.4299,2.9804 l 0.1115,0.2725 h -2.6908 l -0.059,-0.0883 c -0.3795,-0.5671 -0.8951,-1.036 -1.499,-1.359 -0.5812,-0.3109 -1.2463,-0.4874 -1.9532,-0.4874 -1.1472,0 -2.1855,0.4657 -2.9367,1.2184 z m -15.9072,9.223 -0.0355,-12.9224 h 2.3984 l 5.7609,8.941 c 0.0672,0.0459 0.2511,0.1484 0.2822,-0.0806 v -6.9339 l 2.4945,-2.1667 c -0.0604,4.4186 -0.1187,8.8375 -0.1831,13.256 h -2.2511 l -5.9726,-8.6256 c -0.0407,-0.0292 -0.1387,-0.0867 -0.2128,-0.0315 l 0.1629,4.9571 c 3e-4,0.01 0.1472,3.3495 -2.2093,3.801 l -0.2339,0.0447 z m -7.6512,-2.1555 h 1.4064 v -6.0415 l 2.3802,-2.1616 h -3.9499 v -2.4937 h 6.4659 v 2.4937 h -2.2674 v 8.2031 h 2.1279 v 2.4937 h -6.3613 v -2.4937 z m -9.9781,-0.0111 -2.1105,2.6741 -0.3523,-0.1222 -0.0357,-13.2397 2.4688,0.04 5.533,8.4816 -0.1874,-6.0084 0.048,-0.1346 2.0929,-2.4118 0.3475,0.1292 v 12.9526 l -2.2896,0.0401 -5.613,-8.1724 0.1408,5.6447 z m -13.6584,2.4296 -0.018,-12.6608 5.5705,0.0364 0.0309,0.002 c 0.007,0.001 2.516,0.3702 2.7803,2.3011 l 0.002,0.0263 v 2.9364 l -0.0108,0.0642 c -0.002,0.005 -0.6386,1.8817 -2.7339,1.8817 h -3.0485 l -0.0333,3.7447 c 0.009,0.1266 0.0347,1.3786 -2.3027,1.8613 l -0.2365,0.0489 z m 6.9586,0.0961 -3.5582,-5.0687 0.2277,-0.3004 2.7813,0.9791 0.0891,0.0636 3.4682,4.3692 -2.9485,0.0422 z m -2.5221,-10.6646 h -0.82 c -0.2815,0 -0.5371,0.1153 -0.722,0.3005 -0.1853,0.1858 -0.3006,0.4424 -0.3006,0.7246 v 1.8532 c 0,0.2534 0.1034,0.4839 0.2699,0.6507 0.166,0.1663 0.3955,0.2697 0.6481,0.2697 h 0.9246 c 0.4877,0 0.9308,-0.1998 1.2517,-0.5213 0.3212,-0.3219 0.5208,-0.7666 0.5208,-1.2555 v -0.2451 c 0,-0.489 -0.1996,-0.9337 -0.5208,-1.2555 -0.3209,-0.3215 -0.764,-0.5213 -1.2517,-0.5213 z m -10.439,-2.1775 5.2363,12.9219 -2.9817,0.041 -0.9847,-3.0424 h -1.9023 l -1.6978,-1.7419 c -0.8026,2.3395 -2.0141,4.4742 -4.3685,4.5727 l -0.3045,0.0127 c 1.717,-4.296 3.4305,-8.5936 5.1515,-12.8879 h 1.8016 z m -1.554,5.5292 c -0.2131,0.7961 -0.4431,1.6544 -0.723,2.4918 h 2.9321 l -1.3438,-4.1522 -0.3965,0.003 c -0.1565,0.4921 -0.3079,1.057 -0.4688,1.6578 z m -54.8786,1.6828 h -2.5021 l -1.9545,-2.4588 h 4.6548 v 2.4588 z m 0.1577,5.49 h -7.3491 v -7.2244 l 0.041,-0.1201 2.3196,-3.0413 0.3545,0.1224 -0.1021,7.8396 h 4.9343 v 2.4238 z m 0.3314,-10.4519 h -7.6805 v -2.7034 h 7.8787 v 2.7034 z m 47.6691,4.9619 h -2.5021 l -1.7803,-2.2396 -0.0693,5.3058 h 4.9343 v 2.4238 h -7.5473 v -7.2244 l 0.041,-0.1201 2.3198,-3.0413 0.3545,0.1224 -0.0301,2.3146 h 4.4777 v 2.4588 z m 0.4892,-4.9619 h -7.6806 v -2.7034 h 7.8788 v 2.7034 z m -15.1919,8.1334 h 6.5817 v 2.4588 h -6.7798 v -2.4588 z m 0,-10.8016 h 2.6451 l -0.2151,7.859 -0.0503,0.127 -2.2325,2.482 -0.3453,-0.1324 v -10.3356 z m -13.3602,0.0269 c 1.817,0 3.4627,0.7385 4.6539,1.9325 1.1908,1.1935 1.9277,2.8423 1.9277,4.6627 0,1.8204 -0.7369,3.4692 -1.9277,4.6627 -1.1912,1.194 -2.8369,1.9325 -4.6539,1.9325 -1.8171,0 -3.4627,-0.7385 -4.654,-1.9325 -1.1908,-1.1935 -1.9277,-2.8423 -1.9277,-4.6627 0,-1.8204 0.7369,-3.4692 1.9277,-4.6627 1.1913,-1.194 2.8369,-1.9325 4.654,-1.9325 z"
         style="fill:#000000;fill-rule:evenodd"
         id="path13" />
    </g>
  </g>
  <g
     id="Layer1003">
    <path
       d="m -338.8882,54.8135 v 460.8 h 259.2 v -460.8 z"
       style="fill:#ffffff;fill-rule:evenodd"
       id="path17" />
    <path
       d="m -236.9099,242.9807 40.9927,-0.0281 0.0418,-2.7474 c 2.0239,0.8575 2.019,1.358 3.9824,3.3321 1.3502,1.3569 2.3709,2.3754 3.7255,3.7334 1.6351,1.6396 6.4814,6.0261 7.3933,7.5692 -0.6298,0.452 -0.1458,0.5512 -2.3462,0.5914 -9.2907,0.1714 -37.2425,-0.6327 -41.7341,0.1416 l -0.01,10.8452 41.3123,-0.0154 0.0814,12.3652 -41.4091,0.07 0.017,11.2949 41.3607,-6e-4 0.01,12.3812 -53.6976,0.0275 -0.0506,-47.7473 c 3.2256,-0.2336 8.656,-0.6718 11.5186,0.1979 z m -16.8462,30.0576 c 0.003,13.91 -0.3151,31.4724 0.0759,44.9459 11.1248,-0.0766 22.2128,-0.009 33.2805,-0.009 12.1357,0 19.9552,0.4773 29.3421,-3.9378 45.0323,-21.1805 27.8742,-85.2722 -17.6965,-85.5753 -24.9005,-0.1659 -45.0636,19.671 -45.002,44.5766 z"
       style="fill:#3e57e8;fill-rule:evenodd"
       id="path19" />
  </g>
</svg>
